<?xml version="1.0" encoding="UTF-8" standalone="no"?>
<!-- Uploaded to: SVG Repo, www.svgrepo.com, Generator: SVG Repo Mixer Tools -->

<svg
   width="48"
   height="48"
   viewBox="0 0 1.92 1.92"
   id="object"
   version="1.1"
   xmlns="http://www.w3.org/2000/svg"
   xmlns:svg="http://www.w3.org/2000/svg">
  <defs
     id="defs1">
    <style
       id="style1">.cls-1{fill:#ffffff;}.cls-2{fill:#6d6daa;}.cls-3{fill:#ffd599;}.cls-4{fill:#d6b5b0;}.cls-5{fill:#eef5fd;}</style>
  </defs>
  <title
     id="title1" />
  <rect
     class="cls-1"
     height="1.2800003"
     width="1.7920002"
     x="0.089401551"
     y="0.31863713"
     id="rect1"
     style="stroke-width:0.064" />
  <path
     class="cls-2"
     d="M 1.8814015,1.6626385 H 0.08940146 a 0.06400001,0.06400001 0 0 1 -0.064,-0.064 V 0.31863647 a 0.06400001,0.06400001 0 0 1 0.064,-0.064 H 1.8814015 a 0.06400001,0.06400001 0 0 1 0.064,0.064 V 1.5986365 a 0.06400001,0.06400001 0 0 1 -0.064,0.064 z m -1.72800004,-0.128 H 1.8174015 V 0.38263647 H 0.15340146 Z"
     id="path1"
     style="stroke-width:0.064" />
  <rect
     class="cls-3"
     height="1.0240002"
     width="1.7920002"
     x="0.089401551"
     y="0.57463765"
     id="rect2"
     style="stroke-width:0.064" />
  <path
     class="cls-2"
     d="M 1.8814015,1.6626385 H 0.08940146 a 0.06400001,0.06400001 0 0 1 -0.064,-0.064 V 0.57463947 a 0.06400001,0.06400001 0 0 1 0.064,-0.064 H 1.8814015 a 0.06400001,0.06400001 0 0 1 0.064,0.064 V 1.5986385 a 0.06400001,0.06400001 0 0 1 -0.064,0.064 z m -1.72800004,-0.128 H 1.8174015 V 0.63863747 H 0.15340146 Z"
     id="path2"
     style="stroke-width:0.064" />
  <rect
     class="cls-4"
     height="0.25600004"
     width="1.7920002"
     x="0.089401551"
     y="0.31863713"
     id="rect3"
     style="stroke-width:0.064" />
  <path
     class="cls-2"
     d="M 1.8814015,0.63863747 H 0.08940146 a 0.06400001,0.06400001 0 0 1 -0.064,-0.064 v -0.256002 a 0.06400001,0.06400001 0 0 1 0.064,-0.064 H 1.8814015 a 0.06400001,0.06400001 0 0 1 0.064,0.064 v 0.256 a 0.06400001,0.06400001 0 0 1 -0.064,0.064 z m -1.72800004,-0.128 H 1.8174015 v -0.128001 H 0.15340146 Z"
     id="path3"
     style="stroke-width:0.064" />
  <path
     class="cls-5"
     d="m 1.2414015,0.76663747 a 0.32000004,0.32000004 0 0 0 -0.27584004,0.16 h -0.448 l -0.108161,0.16000003 0.106881,0.159999 h 0.10624 l 0.08,-0.106878 0.08,0.106878 h 0.18304 A 0.32000004,0.32000004 0 1 0 1.2414015,0.76663747 Z m 0,0.42688103 a 0.10688001,0.10688001 0 1 1 0.10688,-0.106881 0.10688001,0.10688001 0 0 1 -0.10688,0.106881 z"
     id="path4"
     style="stroke-width:0.064" />
  <path
     class="cls-2"
     d="m 1.2414015,1.4706375 a 0.38400005,0.38400005 0 0 1 -0.31040004,-0.16 h -0.148481 a 0.06400001,0.06400001 0 0 1 -0.0512,-0.0256 l -0.0288,-0.0384 -0.0288,0.0384 a 0.06400001,0.06400001 0 0 1 -0.0512,0.0256 h -0.10624 a 0.06400001,0.06400001 0 0 1 -0.05376,-0.0288 l -0.10624,-0.16 a 0.06400001,0.06400001 0 0 1 0,-0.0704 l 0.10624,-0.15680003 a 0.06400001,0.06400001 0 0 1 0.05376,-0.0288 h 0.41472 A 0.38400005,0.38400005 0 1 1 1.2414015,1.4706375 Z M 0.81452146,1.1826385 h 0.15104 a 0.06400001,0.06400001 0 0 1 0.05568,0.032 0.25600004,0.25600004 0 0 0 0.220159,0.128 0.25600004,0.25600004 0 0 0 0,-0.51200003 0.25600004,0.25600004 0 0 0 -0.220159,0.127999 0.06400001,0.06400001 0 0 1 -0.05568,0.032 h -0.41536 l -0.064,0.096 0.064,0.096 h 0.04032 l 0.0608,-0.08128 a 0.06400001,0.06400001 0 0 1 0.102399,0 z m 0.42688004,0.074879 a 0.17088002,0.17088002 0 1 1 0.17088,-0.17088 0.17152002,0.17152002 0 0 1 -0.17088,0.17088 z m 0,-0.21376 a 0.04288001,0.04288001 0 1 0 0.04288,0.04288 0.04288001,0.04288001 0 0 0 -0.04288,-0.04288 z"
     id="path5"
     style="stroke-width:0.064" />
</svg>
